# xmcd
#
# Track frame offsets:
#	187
#	22475
#	40010
#	55790
#	75130
#	88415
#	96767
#	115480
#	139805
#	161292
#	180317
#	199950
#
# Disc length: 2813 seconds
#
# Revision: 1
# Processed by: cddbd v1.5PL3 Copyright (c) Steve Scherf et al.
# Submitted via: CDex 1.50Beta5
#
DISCID=990afb0c
DTITLE=AION - AIONISM
DYEAR=1991
DGENRE=Pop
TTITLE0=LAUNCHI GAME
TTITLE1=BE AFRAID
TTITLE2=CHILD
TTITLE3=COLD BLOOD
TTITLE4=DISARRY
TTITLE5=PETER-III
TTITLE6=S・S・S
TTITLE7=鎖と雨
TTITLE8=CAUTION
TTITLE9=POPULAR SONG
TTITLE10=MY PLACE
TTITLE11=致命傷
EXTD=
EXTT0=
EXTT1=
EXTT2=
EXTT3=
EXTT4=
EXTT5=
EXTT6=
EXTT7=
EXTT8=
EXTT9=
EXTT10=
EXTT11=
PLAYORDER=
